<?xml version="1.0" encoding="utf-8"?>
<!-- Generator: Adobe Illustrator 26.0.2, SVG Export Plug-In . SVG Version: 6.00 Build 0)  -->
<svg version="1.1" id="Layer_1" xmlns="http://www.w3.org/2000/svg" xmlns:xlink="http://www.w3.org/1999/xlink" x="0px" y="0px"
	 viewBox="0 0 240 43.2" style="enable-background:new 0 0 240 43.2;" xml:space="preserve">
<style type="text/css">
	.st0{fill:#FFFFFF;}
	.st1{fill:#FFDD35;}
</style>
<path class="st0" d="M234.1,43.2H5.9c-3.3,0-5.9-2.7-5.9-5.9V5.9C0,2.7,2.7,0,5.9,0h228.2c3.3,0,5.9,2.7,5.9,5.9v31.3
	C240,40.5,237.4,43.2,234.1,43.2z"/>
<path d="M15.1,39.9L2.4,3.5H9l9.7,29.2l9.8-29.2H35L22.3,39.9H15.1z"/>
<path d="M38.5,9c-1.4-1.5-1.4-3.6,0-5c1.4-1.5,3.7-1.5,5.1,0c1.4,1.4,1.4,3.6,0,5C42.1,10.4,39.9,10.4,38.5,9z M38.2,39.9v-26h5.6
	v26H38.2z"/>
<path d="M54.3,39.9V19.3h-5.8v-5.4h5.8V6.7h5.6v7.3h5.5v5.4h-5.5v20.6H54.3z"/>
<path d="M90.9,13.9h5.6v26h-5.6v-3.7c-2.1,3-5.2,4.4-9.2,4.4c-3.6,0-6.6-1.3-9.2-3.9c-2.6-2.6-3.8-5.9-3.8-9.7
	c0-3.9,1.3-7.1,3.8-9.7c2.6-2.6,5.6-3.9,9.2-3.9c4,0,7,1.5,9.2,4.4V13.9z M82.6,35.2c2.4,0,4.3-0.8,5.9-2.3c1.6-1.6,2.4-3.6,2.4-6
	s-0.8-4.4-2.4-5.9c-1.6-1.6-3.6-2.4-5.9-2.4s-4.3,0.8-5.9,2.4c-1.6,1.6-2.4,3.5-2.4,5.9c0,2.4,0.8,4.4,2.4,6
	C78.3,34.5,80.3,35.2,82.6,35.2z"/>
<path d="M117.4,3.5c5,0,9.2,1.8,12.5,5.2c3.3,3.5,5,7.8,5,12.9c0,5.1-1.7,9.4-5,12.9c-3.3,3.5-7.5,5.2-12.5,5.2h-14.4V3.5H117.4z
	 M117.4,34.2c3.5,0,6.3-1.2,8.4-3.5c2.2-2.3,3.3-5.4,3.3-8.9c0-3.6-1.1-6.6-3.3-8.9c-2.1-2.3-5-3.5-8.4-3.5h-8.4v25L117.4,34.2
	L117.4,34.2z"/>
<path d="M158.4,27l-5.8-16.4L146.8,27l-2,5.6l-2.6,7.3h-6.5L149,3.5h7.2l13.2,36.4h-6.5l-2.6-7.3"/>
<path d="M189.1,40.6c-5.3,0-9.8-1.8-13.5-5.5c-3.7-3.7-5.5-8.2-5.5-13.4c0-5.2,1.8-9.7,5.5-13.4c3.7-3.7,8.2-5.5,13.5-5.5
	s9.8,1.8,13.4,5.5c3.7,3.6,5.5,8.1,5.5,13.4c0,5.2-1.8,9.7-5.5,13.4C198.9,38.8,194.4,40.6,189.1,40.6z M189.1,34.8
	c3.7,0,6.7-1.3,9.2-3.7c2.5-2.5,3.8-5.6,3.8-9.4s-1.3-6.9-3.8-9.3c-2.5-2.5-5.5-3.7-9.2-3.7s-6.7,1.3-9.3,3.7
	c-2.5,2.4-3.7,5.6-3.7,9.3s1.3,6.9,3.7,9.4C182.4,33.5,185.5,34.8,189.1,34.8z"/>
<path class="st1" d="M215.7,3.4l0.2,0.2c4.2,3,9.9,3,14.1,0c3.5-2.5,7.9,1.5,5.8,5.2l-7.3,12.7c-2.5,4.4-8.8,4.4-11.3,0l-7.4-12.8
	C207.8,4.9,212.2,0.9,215.7,3.4z"/>
</svg>
