<svg id="Layer_1" data-name="Layer 1" xmlns="http://www.w3.org/2000/svg" viewBox="0 0 32 32"><defs><style>.cls-1{fill:#379e48;}.cls-2{fill:#205b2e;}</style></defs><path class="cls-1" d="M16,20.74071l-4.1054-2.3684V5.55314L9.01272,7.21679,4.89948,9.59042V22.40958L16,28.81786l2.87927-1.661V19.07969Zm0,5.95765-9.2666-5.34983V10.65147L9.01272,9.33628v10.697L16,24.06536Z"/><path class="cls-1" d="M16,3.18214l-2.87929,1.661v8.07976L16,11.25929l4.10538,2.371V26.44684l2.87926-1.661,4.11587-2.37625V9.59042Zm9.264,18.16639-2.27932,1.31518v-10.697L16,7.93464v-2.633l9.264,5.34983Z"/><polygon class="cls-2" points="16 11.259 16 7.935 17.531 8.818 16 11.259"/><polygon class="cls-2" points="16 20.714 16 24.039 14.469 23.155 16 20.714"/></svg>