<svg width="45" height="34" viewBox="0 0 45 34" fill="none" xmlns="http://www.w3.org/2000/svg">
<g >
<path d="M43.7001 9.60001H5.80005V32.8H43.7001V9.60001Z" stroke="#4DD9F6" stroke-miterlimit="10"/>
<path d="M39.3 9.60001L38.1 0.600006L0.599976 5.50001L3.59998 28.3L5.79998 27.8" stroke="#4DD9F6" stroke-miterlimit="10"/>
<path d="M14 9.60001C14 14.1 10.3 17.8 5.80005 17.8" stroke="#4DD9F6" stroke-miterlimit="10"/>
<path d="M5.80005 24.6C10.3 24.6 14 28.3 14 32.8" stroke="#4DD9F6" stroke-miterlimit="10"/>
<path d="M35.5 32.8C35.5 28.3 39.2 24.6 43.7 24.6" stroke="#4DD9F6" stroke-miterlimit="10"/>
<path d="M43.7 17.8C39.2 17.8 35.5 14.1 35.5 9.60001" stroke="#4DD9F6" stroke-miterlimit="10"/>
<path d="M24.7 29.6C28.6212 29.6 31.8 25.8392 31.8 21.2C31.8 16.5608 28.6212 12.8 24.7 12.8C20.7788 12.8 17.6 16.5608 17.6 21.2C17.6 25.8392 20.7788 29.6 24.7 29.6Z" stroke="#4DD9F6" stroke-miterlimit="10"/>
</g>
<defs>
<clipPath id="clip0">
<rect width="44.2" height="33.3" fill="white"/>
</clipPath>
</defs>
</svg>
