<svg width="37" height="40" viewBox="0 0 37 40" fill="none" xmlns="http://www.w3.org/2000/svg">
<g clip-path="url(#clip0)">
<path d="M6 23.8H7.7C9.7 23.8 11.5 22.7 12.3 20.9L13.1 19.3C14.8 16 14.8 12 13.1 8.7C11.8 6.1 12.6 3 15 1.4C16.9 0.100003 19.4 0.100003 21.3 1.4C23.7 3 24.5 6.1 23.2 8.7C21.5 12 21.5 16 23.2 19.3L24 20.9C24.9 22.7 26.7 23.8 28.6 23.8H30.3" stroke="#4DD9F6" stroke-miterlimit="10"/>
<path d="M36 33.7H0.5V28.4C0.5 25.9 2.6 23.8 5.1 23.8H31.4C33.9 23.8 36 25.9 36 28.4V33.7Z" stroke="#4DD9F6" stroke-miterlimit="10"/>
<path d="M33.6 38.8H28.5H23.4H18.2H13.1H8.00002H2.90002V33.7H33.6V38.8Z" stroke="#4DD9F6" stroke-miterlimit="10"/>
</g>
<defs>
<clipPath id="clip0">
<rect width="36.5" height="39.3" fill="white"/>
</clipPath>
</defs>
</svg>
