<svg width="38" height="45" viewBox="0 0 38 45" fill="none" xmlns="http://www.w3.org/2000/svg">
<g >
<path d="M13.2867 33.8597H0.442871V0.438599H29.4079V21.7544" stroke-miterlimit="10"/>
<path d="M4.87183 5.8772H25.1562"  stroke-miterlimit="10"/>
<path d="M27.1048 20.3509C27.5477 21.7544 29.1421 22.2807 30.2937 21.4035C31.8881 20.1754 34.1911 21.7544 33.4825 23.6842C33.0396 25 34.0139 26.4035 35.4312 26.4035C37.4685 26.3158 38.3543 28.9474 36.6713 30.0877C35.5198 30.8772 35.5198 32.6316 36.6713 33.421C38.3543 34.5614 37.4685 37.193 35.4312 37.1053C34.0139 37.1053 32.951 38.5088 33.4825 39.8246C34.1911 41.7544 31.8881 43.3333 30.2937 42.1053C29.1421 41.2281 27.4592 41.7544 27.1048 43.1579C26.4848 45.0877 23.7389 45.0877 23.2074 43.1579C22.7645 41.7544 21.1701 41.2281 20.0186 42.1053C18.4242 43.3333 16.1212 41.7544 16.8298 39.8246C17.2727 38.5088 16.2983 37.1053 14.8811 37.1053C12.8438 37.193 11.958 34.5614 13.641 33.421C14.7925 32.6316 14.7925 30.8772 13.641 30.0877C11.958 28.9474 12.8438 26.3158 14.8811 26.4035C16.2983 26.4035 17.3613 25 16.8298 23.6842C16.1212 21.7544 18.4242 20.1754 20.0186 21.4035C21.1701 22.2807 22.8531 21.7544 23.2074 20.3509C23.7389 18.421 26.4848 18.421 27.1048 20.3509Z"  stroke-miterlimit="10"/>
<path d="M25.1562 38.8597C29.1677 38.8597 32.4196 35.6393 32.4196 31.6667C32.4196 27.6941 29.1677 24.4737 25.1562 24.4737C21.1448 24.4737 17.8928 27.6941 17.8928 31.6667C17.8928 35.6393 21.1448 38.8597 25.1562 38.8597Z"  stroke-miterlimit="10"/>
<path d="M4.87183 10.8772H25.1562" stroke-miterlimit="10"/>
<path d="M4.87183 15.9649H20.7273"  stroke-miterlimit="10"/>
<path d="M4.87183 20.9649H11.1609"  stroke-miterlimit="10"/>
</g>
<defs>
<clipPath id="clip0">
<rect width="38" height="45" fill="white"/>
</clipPath>
</defs>
</svg>
