<svg width="25" height="19" viewBox="0 0 25 19"  xmlns="http://www.w3.org/2000/svg">
<g >
<path d="M7.6 8.7C9.86437 8.7 11.7 6.86437 11.7 4.6C11.7 2.33563 9.86437 0.5 7.6 0.5C5.33563 0.5 3.5 2.33563 3.5 4.6C3.5 6.86437 5.33563 8.7 7.6 8.7Z"  stroke-miterlimit="10"/>
<path d="M14.8 18.1H0.5C0.5 14.2 3.7 11 7.6 11C11.6 11 14.8 14.1 14.8 18.1Z"  stroke-miterlimit="10"/>
<path d="M24.9999 3.39999C23.8999 3.39999 22.9999 4.29999 22.9999 5.39999V16.2C22.9999 17.2 22.1999 18 21.1999 18C20.1999 18 19.3999 17.2 19.3999 16.2V5.49999C19.3999 4.39999 18.4999 3.49999 17.3999 3.49999" 
stroke-miterlimit="10"/>
<path d="M19.3999 7.60001H22.9999" stroke-miterlimit="10"/>
</g>
<defs>
<clipPath id="clip0">
<rect width="25" height="18.6" fill="white"/>
</clipPath>
</defs>
</svg>
