<svg width="28" height="12" viewBox="0 0 28 12" xmlns="http://www.w3.org/2000/svg">
<g >
<path d="M25.0353 8.4549C26.43 8.4549 27.5607 7.32419 27.5607 5.92941C27.5607 4.53462 26.43 3.40392 25.0353 3.40392C23.6405 3.40392 22.5098 4.53462 22.5098 5.92941C22.5098 7.32419 23.6405 8.4549 25.0353 8.4549Z"  stroke-miterlimit="10"/>
<path d="M3.07432 8.4549C4.46911 8.4549 5.59981 7.32419 5.59981 5.92941C5.59981 4.53462 4.46911 3.40392 3.07432 3.40392C1.67953 3.40392 0.548828 4.53462 0.548828 5.92941C0.548828 7.32419 1.67953 8.4549 3.07432 8.4549Z"  stroke-miterlimit="10"/>
<path d="M14.0547 11.3098C17.0262 11.3098 19.4351 8.90093 19.4351 5.92942C19.4351 2.95791 17.0262 0.549026 14.0547 0.549026C11.0832 0.549026 8.67432 2.95791 8.67432 5.92942C8.67432 8.90093 11.0832 11.3098 14.0547 11.3098Z"  stroke-miterlimit="10"/>
<path d="M5.6001 5.92941H8.67461"  stroke-miterlimit="10"/>
<path d="M19.3257 5.92941H22.51"  stroke-miterlimit="10"/>
</g>
<defs>
<clipPath id="clip0">
<rect width="28" height="11.749" fill="white"/>
</clipPath>
</defs>
</svg>
