<svg width="20" height="19" viewBox="0 0 20 19"  xmlns="http://www.w3.org/2000/svg">
<path d="M18.5 9.5V5H16.2" stroke="white" stroke-miterlimit="10"/>
<path d="M0.5 2.70001V16.2C0.5 17.4 1.5 18.4 2.7 18.4H18.4V14" stroke="white" stroke-miterlimit="10"/>
<path d="M16.2 5.00001H2.7C1.5 5.00001 0.5 4.00001 0.5 2.80001C0.5 1.60001 1.5 0.600006 2.7 0.600006H16.2V5.00001Z" stroke="white" stroke-miterlimit="10"/>
<path d="M14 14H18.6C19.1 14 19.5 13.6 19.5 13.1V10.4C19.5 9.9 19.1 9.5 18.6 9.5H14C12.8 9.5 11.8 10.5 11.8 11.7C11.7 13 12.8 14 14 14Z" stroke="white" stroke-miterlimit="10"/>
</svg>
