<svg xmlns="http://www.w3.org/2000/svg" width="51.197" height="47.375" viewBox="0 0 51.197 47.375"><g transform="translate(0.125 0.125)"><path d="M29.274.125,9.372,14.852l3.7-8.679Z" transform="translate(19.154 -0.125)" fill="#e17726" stroke="#e17726" stroke-linecap="round" stroke-linejoin="round" stroke-width="0.25"/><path d="M.942.125,20.667,14.989,17.144,6.173Z" transform="translate(1.578 -0.125)" fill="#e27625" stroke="#e27625" stroke-linecap="round" stroke-linejoin="round" stroke-width="0.25"/><path d="M17.079,11.193l-5.3,8.09,11.339,3.122L26.371,11.37Z" transform="translate(24.183 22.952)" fill="#e27625" stroke="#e27625" stroke-linecap="round" stroke-linejoin="round" stroke-width="0.25"/><path d="M.259,11.37,3.487,22.405l11.32-3.122-5.276-8.09Z" transform="translate(0.154 22.952)" fill="#e27625" stroke="#e27625" stroke-linecap="round" stroke-linejoin="round" stroke-width="0.25"/><path d="M6.906,11.368,3.756,16.12l11.221.511L14.6,4.555Z" transform="translate(7.445 9.111)" fill="#e27625" stroke="#e27625" stroke-linecap="round" stroke-linejoin="round" stroke-width="0.25"/><path d="M17.443,11.461,9.627,4.51,9.371,16.724l11.221-.51Z" transform="translate(19.153 9.019)" fill="#e27625" stroke="#e27625" stroke-linecap="round" stroke-linejoin="round" stroke-width="0.25"/><path d="M4.975,19.111l6.792-3.279L5.92,11.276Z" transform="translate(9.987 23.125)" fill="#e27625" stroke="#e27625" stroke-linecap="round" stroke-linejoin="round" stroke-width="0.25"/><path d="M9.588,15.832l6.772,3.279-.925-7.835Z" transform="translate(19.606 23.125)" fill="#e27625" stroke="#e27625" stroke-linecap="round" stroke-linejoin="round" stroke-width="0.25"/><path d="M16.36,16.032,9.588,12.753l.551,4.4-.059,1.865Z" transform="translate(19.606 26.204)" fill="#d5bfb2" stroke="#d5bfb2" stroke-linecap="round" stroke-linejoin="round" stroke-width="0.25"/><path d="M4.975,16.032l6.3,2.985-.039-1.865.532-4.4Z" transform="translate(9.987 26.204)" fill="#d5bfb2" stroke="#d5bfb2" stroke-linecap="round" stroke-linejoin="round" stroke-width="0.25"/><path d="M10.86,12.683,5.23,11.034,9.207,9.208Z" transform="translate(10.519 18.812)" fill="#233447" stroke="#233447" stroke-linecap="round" stroke-linejoin="round" stroke-width="0.25"/><path d="M9.71,12.683l1.654-3.475,4,1.826Z" transform="translate(19.859 18.812)" fill="#233447" stroke="#233447" stroke-linecap="round" stroke-linejoin="round" stroke-width="0.25"/><path d="M8.54,19.283l.984-8.09-6.26.177Z" transform="translate(6.421 22.952)" fill="#cc6228" stroke="#cc6228" stroke-linecap="round" stroke-linejoin="round" stroke-width="0.25"/><path d="M11.471,11.193l.965,8.09,5.3-7.913Z" transform="translate(23.531 22.952)" fill="#cc6228" stroke="#cc6228" stroke-linecap="round" stroke-linejoin="round" stroke-width="0.25"/><path d="M20.592,8.3,9.371,8.814l1.043,5.753,1.654-3.476,4,1.826Z" transform="translate(19.153 16.928)" fill="#cc6228" stroke="#cc6228" stroke-linecap="round" stroke-linejoin="round" stroke-width="0.25"/><path d="M8.3,12.918l3.977-1.826,1.654,3.476,1.043-5.753L3.756,8.3Z" transform="translate(7.445 16.928)" fill="#cc6228" stroke="#cc6228" stroke-linecap="round" stroke-linejoin="round" stroke-width="0.25"/><path d="M3.756,8.3l4.705,9.17L8.3,12.918Z" transform="translate(7.446 16.928)" fill="#e27525" stroke="#e27525" stroke-linecap="round" stroke-linejoin="round" stroke-width="0.25"/><path d="M11.661,12.918l-.177,4.555,4.7-9.17Z" transform="translate(23.558 16.928)" fill="#e27525" stroke="#e27525" stroke-linecap="round" stroke-linejoin="round" stroke-width="0.25"/><path d="M8.1,8.469,7.055,14.223l1.319,6.794.3-8.954Z" transform="translate(14.324 17.273)" fill="#e27525" stroke="#e27525" stroke-linecap="round" stroke-linejoin="round" stroke-width="0.25"/><path d="M9.744,8.469l-.551,3.574.276,8.973,1.319-6.794Z" transform="translate(18.781 17.273)" fill="#e27525" stroke="#e27525" stroke-linecap="round" stroke-linejoin="round" stroke-width="0.25"/><path d="M10.6,11.449,9.282,18.243l.945.668,5.847-4.555L16.251,9.8Z" transform="translate(18.967 20.046)" fill="#f5841f" stroke="#f5841f" stroke-linecap="round" stroke-linejoin="round" stroke-width="0.25"/><path d="M5.23,9.8l.158,4.555,5.847,4.555.945-.668L10.86,11.449Z" transform="translate(10.519 20.046)" fill="#f5841f" stroke="#f5841f" stroke-linecap="round" stroke-linejoin="round" stroke-width="0.25"/><path d="M19.7,16.8l.059-1.865-.512-.432h-7.52l-.492.432.039,1.865-6.3-2.985,2.2,1.806,4.469,3.083h7.658l4.488-3.083,2.185-1.806Z" transform="translate(9.987 28.42)" fill="#c0ac9d" stroke="#c0ac9d" stroke-linecap="round" stroke-linejoin="round" stroke-width="0.25"/><path d="M14.977,13.2l-.945-.668H8.48l-.945.668L7,17.6l.492-.432h7.52l.512.432Z" transform="translate(14.218 25.753)" fill="#161616" stroke="#161616" stroke-linecap="round" stroke-linejoin="round" stroke-width="0.25"/><path d="M29.668,15.814l1.673-8.129L28.822.125,9.588,14.361l7.4,6.244,10.453,3.044,2.3-2.69-1-.727,1.594-1.453-1.22-.943,1.595-1.217Z" transform="translate(19.606 -0.125)" fill="#763e1a" stroke="#763e1a" stroke-linecap="round" stroke-linejoin="round" stroke-width="0.25"/><path d="M.125,7.685l1.693,8.129-1.083.805,1.614,1.217-1.221.943,1.595,1.453-1,.727,2.3,2.69L14.476,20.6l7.4-6.244L2.645.125Z" transform="translate(-0.125 -0.125)" fill="#763e1a" stroke="#763e1a" stroke-linecap="round" stroke-linejoin="round" stroke-width="0.25"/><path d="M23.492,9.807,13.039,6.764l3.15,4.752-4.7,9.17,6.221-.078H27Z" transform="translate(23.558 13.716)" fill="#f5841f" stroke="#f5841f" stroke-linecap="round" stroke-linejoin="round" stroke-width="0.25"/><path d="M14.2,6.764,3.743,9.807.259,20.607H9.531l6.221.078-4.7-9.17Z" transform="translate(0.154 13.716)" fill="#f5841f" stroke="#f5841f" stroke-linecap="round" stroke-linejoin="round" stroke-width="0.25"/><path d="M16,21.78l.669-11.506L19.7,2.085H6.194l3.032,8.188L9.895,21.78l.256,3.613.02,8.934h5.551l.02-8.934Z" transform="translate(12.528 3.962)" fill="#f5841f" stroke="#f5841f" stroke-linecap="round" stroke-linejoin="round" stroke-width="0.25"/></g></svg>