<svg xmlns="http://www.w3.org/2000/svg" width="35.452" height="53.602" viewBox="0 0 35.452 53.602"><path d="M.158,14.432l1.3-.557,15.9-6.916,17.194,7.473L28.085,27.785,12.293,30.012.423,17.189Z" transform="translate(0.372 16.383)" fill="#133444"/><path d="M30.452,11.211A17.655,17.655,0,0,0,19.191,4.984c-.106,0-.185-.026-.291-.026a17.97,17.97,0,0,0-4.133,0c-.106,0-.185.026-.291.026A17.655,17.655,0,0,0,3.214,11.211h0L2.5,12.4,1.306,14.39.432,15.848h0a.138.138,0,0,1-.053.106v.026l1.908,1.139,12.188,7.207L16.833,25.7V8.482l-2.358,1.06V6.971l2.358-1.06,2.358,1.06L31.168,12.4Z" transform="translate(0.893 11.39)" fill="#c42370"/><path d="M35.433,13.479a18.9,18.9,0,0,1-6.942,14.546,18.085,18.085,0,0,1-5.591,3.1,16.366,16.366,0,0,1-5.167.848A18.4,18.4,0,0,1,.008,13.479a17.964,17.964,0,0,1,.53-4.292l17.2,10.174L34.93,9.187A19.4,19.4,0,0,1,35.433,13.479Z" transform="translate(0.018 21.628)" fill="#1c4d6b"/><path d="M4.874,4.941l2.066.953L4.582,6.954V4.834Z" transform="translate(10.787 11.38)"/><path d="M4.582,7,6.94,5.917v17.22L4.582,21.762Z" transform="translate(10.787 13.93)"/><path d="M5.285,5.917v17.22l16.479-9.724Z" transform="translate(12.442 13.93)" fill="#1d4259"/><path d="M5.285,0V19.847l16.479,7.5Z" transform="translate(12.442)" fill="#4b6b9a"/><path d="M16.833,6.939V24.162l-2.358-1.378L.379,14.438h0a.138.138,0,0,1,.053-.106h0L2.5,10.914,14.475,5.482v2.6Z" transform="translate(0.893 12.906)" fill="#343535"/><path d="M16.853,5.917v17.22L14.5,21.762.4,13.414H.371L.4,13.387,14.5,7Z" transform="translate(0.873 13.93)" fill="#3e5578"/><path d="M16.853,0V19.847L.371,27.343Z" transform="translate(0.873)" fill="#6db2d8"/><path d="M3.294,15.562c.238.106.5.212.742.318C3.8,15.774,3.559,15.668,3.294,15.562Z" transform="translate(7.755 36.635)" fill="#335f8a"/><path d="M3.515,15.649a6.541,6.541,0,0,0,.768.265C4.019,15.834,3.78,15.755,3.515,15.649Z" transform="translate(8.276 36.84)" fill="#335f8a"/><path d="M3.942,15.791c.212.053.4.106.583.159Z" transform="translate(9.28 37.175)" fill="#335f8a"/><path d="M.53,9.187l17.2,10.174a19.3,19.3,0,0,1-1.245,4.5C15.1,27.2,12.321,30.7,6.942,28.026h0A18.952,18.952,0,0,1,0,13.453,17.914,17.914,0,0,1,.53,9.187Z" transform="translate(0 21.628)" fill="#6db2d8"/><path d="M23.585,20.93h0c-.106.079,0,0-.344.291l-.159.106-.238.159-.291.212c.291-.212-.238.159-.344.238a1.78,1.78,0,0,0-.291.185l-.185.132a.8.8,0,0,0-.185.132s-.079.079-.106.079c.106-.079-.132.053-.238.132a1.428,1.428,0,0,0-.344.185l-.371.185-.159.079c-.106.053-.053,0-.159.079s-.238.106-.371.185a3.9,3.9,0,0,1-.45.212c.45-.212,0,0-.238.106.238-.106-.424.159-.715.265-.106.026-.689.212-.795.238s-.238.079-.344.106c-.212.053-.4.106-.583.159-.079.026-.159.026-.212.053l-.132.027-.318.079c-.106.026-.185.026-.291.053s-.185.027-.265.053-.212.026-.291.053a.2.2,0,0,0-.132.026l-.212.027h-.106c-.079,0-.159.026-.238.026s-.212.026-.318.026h-2.7c-.106,0-.212-.026-.318-.026a.734.734,0,0,1-.238-.027h-.106c-.079,0-.159-.027-.212-.027a.2.2,0,0,1-.132-.026,1.126,1.126,0,0,1-.291-.053.942.942,0,0,1-.265-.053c-.079-.027-.185-.027-.291-.053l-.318-.079-.132-.026a.5.5,0,0,1-.212-.053c-.212-.053-.4-.106-.583-.159L8,24.136a1.494,1.494,0,0,1-.318-.106c-.265-.079-.5-.185-.768-.265a6.244,6.244,0,0,1-.742-.318c-.106-.053-.238-.106-.371-.159a1.62,1.62,0,0,1-.371-.185,1.428,1.428,0,0,1-.344-.185h0c-.106-.053-.238-.132-.344-.185a2.331,2.331,0,0,1-.265-.159c-.265-.159-.424-.265-.265-.159l-.159-.106-.291-.185-.106-.053-.265-.185c-.106-.079-.212-.132-.318-.212s-.238-.159-.344-.238-.212-.185-.291-.238l-.106-.079A1.037,1.037,0,0,1,2.07,20.9h0c5.379,2.676,8.134-.874,9.512-4.186a20.68,20.68,0,0,0,1.245-4.5,19.357,19.357,0,0,0,1.245,4.557C15.5,20.055,18.206,23.579,23.585,20.93Z" transform="translate(4.872 28.75)" fill="#529bba"/><path d="M6.454,15.95c.212-.053.4-.106.583-.159Z" transform="translate(15.193 37.175)" fill="#335f8a"/><path d="M6.825,15.914c.265-.079.5-.159.768-.265C7.329,15.755,7.09,15.834,6.825,15.914Z" transform="translate(16.068 36.84)" fill="#335f8a"/><path d="M7.038,15.9c.238-.106.556-.212.795-.344C7.568,15.686,7.277,15.792,7.038,15.9Z" transform="translate(16.57 36.617)" fill="#335f8a"/><path d="M23.011,13.479a18.9,18.9,0,0,1-6.942,14.546c-5.379,2.676-8.161-.848-9.539-4.16a20.678,20.678,0,0,1-1.245-4.5l17.2-10.175a17.965,17.965,0,0,1,.53,4.292Z" transform="translate(12.441 21.628)" fill="#4b6b9a"/></svg>