
<svg xmlns="http://www.w3.org/2000/svg" viewBox="0 0 91.18 78.96"><defs><style>.cls-1{fill:#000103;}</style></defs><title>LinumLabs Official Square Symbol BLACK</title><g id="Layer_2" data-name="Layer 2"><g id="Logo_Variations_Lined" data-name="Logo Variations Lined"><path class="cls-1" d="M78,33.32H65.88l6.06-10.5L58.76,0H32.41L19.24,22.82l6.06,10.5H13.18L0,56.14,13.18,79H39.53l6.06-10.5L51.65,79H78L91.18,56.14Zm-1.4,2.31L88,55.38h-8.7l-2.39,0L66.17,35.57ZM75.48,55.37l-10.69.07-8-14.66L54,35.5l10.63.06ZM34.39,43.55,29.06,34.7a.35.35,0,0,0,0-.08L40.09,13.77,45.42,23Zm12.12-20H56.67l-5.11,9.89-6,11.06-10-.06ZM34.63,45.79h0l.18,0,10.84.13,3.05,5.94L50.4,55.3l-23.81-.39-5.2-9.22Zm15.19,5.49-3-6,5.24-10.14h.15s0,0,0,0l3.4,6.21,7.91,14.91-5.8,10.4-4.15-8Zm13.1-17.41H53.1L53,33.76l5.12-10.18H69ZM69,22.34H46.49l-5.32-9.27H63.52ZM57.43,2.41l5.37,9.42H40.43L39,9.46l-4.33-7ZM22,22.93,33.42,3l4.47,7.11,1.46,2.39L28.11,33.38Zm6.13,12.71,5.23,8.81L20.5,44.38l-5.17-9ZM14.24,36l11.27,19.5-5.37,9.25L8.89,45.55ZM2.76,56.11,8.18,46.8,19.44,66l-.76,1.45-4.51,8.36ZM38.21,76.53l-22.87.09,4.44-8.55.78-1.43h23.3ZM44.12,65.4H21.26l5.32-9.24,22.86.4Zm2.1-.55L51,56.67l1.51,2.6L57,68l-4.5,8.08Zm7.42,11.86,4.73-8.3h0L65,56.83a.58.58,0,0,0,0-.14l10.47,0-11,19.89Zm22.92-.12-10.64,0,11.3-19.9h2.06l8.74.09Z"/></g></g></svg>