<svg viewBox="0 0 23 34" fill="none" xmlns="http://www.w3.org/2000/svg">
<path d="M22.8403 16.111C22.8403 15.8415 22.7299 15.572 22.5393 15.3823L18.7677 11.6291C18.6073 11.4694 18.3364 11.4993 18.206 11.689C17.9552 12.0683 17.6944 12.4376 17.4336 12.787C17.3233 12.9267 17.3434 13.1264 17.4637 13.2561L20.0818 15.8615C20.2222 16.0012 20.2222 16.2308 20.0818 16.3705L16.6613 19.7744C15.4074 17.9777 13.9931 16.5901 13.2508 15.9114C14.7353 14.5338 18.2261 10.8405 18.2261 6.7778C18.2261 3.03454 15.1667 0 11.4151 0C7.66358 0 4.60417 3.03454 4.60417 6.76782C4.60417 10.8405 8.10494 14.5139 9.57947 15.9014C8.83719 16.5802 7.41281 17.9577 6.16898 19.7644L2.75849 16.3606C2.61806 16.2208 2.61806 15.9912 2.75849 15.8515L5.37654 13.2462C5.50694 13.1164 5.51697 12.9267 5.40664 12.777C5.14583 12.4276 4.88503 12.0583 4.63426 11.679C4.50386 11.4893 4.24305 11.4594 4.07253 11.6191L0.300926 15.3823C0.110339 15.572 0 15.8415 0 16.111C0 16.3805 0.110339 16.65 0.300926 16.8397L5.06559 21.5812C4.30324 23.0485 3.76157 24.6856 3.76157 26.3725C3.76157 30.575 7.19213 33.9888 11.4151 33.9888C15.6381 33.9888 19.0687 30.575 19.0687 26.3725C19.0687 24.6756 18.527 23.0485 17.7647 21.5812L22.5293 16.8397C22.7299 16.6401 22.8403 16.3805 22.8403 16.111ZM6.59028 6.76782C6.59028 4.12258 8.75694 1.96646 11.4151 1.96646C14.0733 1.96646 16.24 4.12258 16.24 6.76782C16.24 10.6109 11.9969 14.3841 11.4151 14.8732C10.8434 14.3841 6.59028 10.6109 6.59028 6.76782ZM11.4252 17.1791C11.7762 17.4785 13.652 19.1156 15.1065 21.3216L11.6759 24.7355C11.5355 24.8752 11.3048 24.8752 11.1644 24.7355L7.74383 21.3316C9.1983 19.1156 11.064 17.4785 11.4252 17.1791ZM11.4252 31.8327C8.40586 31.8327 5.93827 29.3871 5.93827 26.3725C5.93827 25.2845 6.2392 24.2064 6.69059 23.1983L10.6829 27.1711C10.8835 27.3707 11.1543 27.4706 11.4151 27.4706C11.6759 27.4706 11.9468 27.3707 12.1474 27.1711L16.1397 23.1983C16.591 24.2164 16.892 25.2945 16.892 26.3825C16.902 29.3771 14.4444 31.8327 11.4252 31.8327Z" fill="#37B5A5"/>
</svg>
