<svg width="370" height="61" viewBox="0 0 370 61" fill="none" xmlns="http://www.w3.org/2000/svg">
<path d="M20.0831 58.9781L0 1.47375H10.412L25.7961 47.5625L41.2386 1.47375H51.5726L31.4895 58.9781H20.0831Z" fill="white"/>
<path d="M57.0323 10.0986C54.79 7.79221 54.79 4.34233 57.0323 2.13286C59.2551 -0.173518 62.9013 -0.173518 65.124 2.13286C67.3468 4.34233 67.3468 7.81159 65.0461 10.0986C62.8233 12.3081 59.3526 12.3081 57.0323 10.0986ZM56.6228 58.9783V17.8899H65.553V58.9783H56.6228Z" fill="white"/>
<path d="M81.9894 58.9783V26.4564H72.8643V17.9092H81.9894V6.39673H90.9195V17.8899H99.6547V26.437H90.9195V58.9783H81.9894Z" fill="white"/>
<path d="M139.899 17.9094H148.83V58.9978H139.899V53.0865C136.507 57.7767 131.71 60.0637 125.432 60.0637C119.738 60.0637 114.942 58.0093 110.886 53.823C106.831 49.6366 104.861 44.4618 104.861 38.4536C104.861 32.3678 106.85 27.2705 110.886 23.0842C114.942 18.8978 119.738 16.8434 125.432 16.8434C131.71 16.8434 136.507 19.1498 139.899 23.7431V17.9094ZM126.836 51.5941C130.56 51.5941 133.699 50.3537 136.175 47.8923C138.652 45.3533 139.899 42.2329 139.899 38.4342C139.899 34.6354 138.652 31.5344 136.175 29.073C133.699 26.534 130.56 25.2936 126.836 25.2936C123.112 25.2936 119.972 26.534 117.496 29.073C115.02 31.5344 113.772 34.6548 113.772 38.4342C113.772 42.2135 115.02 45.3339 117.496 47.8923C119.972 50.3537 123.131 51.5941 126.836 51.5941Z" fill="white"/>
<path d="M181.838 1.47375C189.774 1.47375 196.384 4.26467 201.59 9.76896C206.874 15.2733 209.526 22.0955 209.526 30.2356C209.526 38.2789 206.874 45.1011 201.59 50.7023C196.384 56.2066 189.774 58.9975 181.838 58.9975H159.104V1.47375H181.838ZM181.838 49.9464C187.298 49.9464 191.763 48.0664 195.156 44.3646C198.626 40.6628 200.362 35.895 200.362 30.2356C200.362 24.4794 198.626 19.8085 195.156 16.1067C191.763 12.4048 187.298 10.5248 181.838 10.5248H168.619V49.9658H181.838V49.9464Z" fill="white"/>
<path d="M246.554 38.5308L237.39 12.5599L228.207 38.5308L225.067 47.3881L221.012 58.9781H210.678L231.677 1.47375H243.084L264.005 58.9781H253.749L249.694 47.3881" fill="white"/>
<path d="M295.162 60.0442C286.817 60.0442 279.7 57.1757 273.831 51.4195C268.04 45.5857 265.154 38.5115 265.154 30.2163C265.154 21.9211 268.04 14.8469 273.831 9.11005C279.7 3.27627 286.817 0.407837 295.162 0.407837C303.507 0.407837 310.624 3.27627 316.395 9.11005C322.264 14.8663 325.15 21.9211 325.15 30.2163C325.15 38.5115 322.264 45.5857 316.395 51.4195C310.624 57.1757 303.507 60.0442 295.162 60.0442ZM295.162 50.8574C300.953 50.8574 305.827 48.8805 309.708 45.0237C313.666 41.0892 315.655 36.147 315.655 30.2357C315.655 24.3244 313.666 19.3822 309.708 15.5253C305.827 11.5909 300.953 9.61397 295.162 9.61397C289.371 9.61397 284.496 11.5909 280.538 15.5253C276.658 19.3822 274.669 24.3244 274.669 30.2357C274.669 36.147 276.658 41.0892 280.538 45.0237C284.496 48.8805 289.371 50.8574 295.162 50.8574Z" fill="white"/>
<path d="M337.201 1.2026L337.571 1.45455C344.278 6.16422 353.248 6.16422 359.935 1.41579C365.473 -2.49924 372.492 3.7997 369.119 9.67224L357.615 29.6931C353.657 36.5929 343.654 36.5929 339.677 29.6931L328.056 9.45904C324.683 3.62526 331.663 -2.69305 337.201 1.2026Z" fill="#FCE366"/>
</svg>
