<svg width="371" height="62" viewBox="0 0 371 62" fill="none" xmlns="http://www.w3.org/2000/svg">
<path fill-rule="evenodd" clip-rule="evenodd" d="M40.7829 2L25.4992 48.4822L10.2982 2H0L19.8608 60H31.1407L51 2H40.7829Z" fill="white"/>
<mask id="mask0" mask-type="alpha" maskUnits="userSpaceOnUse" x="54" y="1" width="317" height="60">
<path fill-rule="evenodd" clip-rule="evenodd" d="M54.1426 1.31372H370.164V61H54.1426V1.31372Z" fill="white"/>
</mask>
<g mask="url(#mask0)">
<path fill-rule="evenodd" clip-rule="evenodd" d="M55.3987 59.9381H64.3042V19.1051H55.3987V59.9381ZM55.8121 11.3486C53.5861 9.06106 53.5861 5.63206 55.8121 3.42556C58.0366 1.13956 61.6648 1.13956 63.8908 3.42556C66.1168 5.63206 66.1168 9.06106 63.8075 11.3486C61.583 13.5521 58.1198 13.5521 55.8121 11.3486Z" fill="white"/>
<path fill-rule="evenodd" clip-rule="evenodd" d="M97.6075 27.5987H87.3846V47.1977C87.3846 52.4252 90.8462 52.3427 97.6075 52.0157V59.9387C84.0047 61.5707 78.4806 57.8957 78.4806 47.1977V27.5987H70.8955V19.1057H78.4806V10.2857L87.3846 7.67273V19.1057H97.6075V27.5987Z" fill="white"/>
<path fill-rule="evenodd" clip-rule="evenodd" d="M123.658 52.5891C127.368 52.5891 130.501 51.3636 132.974 48.9141C135.447 46.3821 136.685 43.2786 136.685 39.5226C136.685 35.7651 135.447 32.6616 132.974 30.2121C130.501 27.6816 127.368 26.4561 123.658 26.4561C119.948 26.4561 116.815 27.6816 114.342 30.2121C111.869 32.6616 110.631 35.7651 110.631 39.5226C110.631 43.2786 111.869 46.3821 114.342 48.9141C116.815 51.3636 119.948 52.5891 123.658 52.5891ZM136.685 19.1061H145.586V59.9376H136.685V54.0576C133.302 58.7136 128.522 60.9996 122.256 60.9996C116.567 60.9996 111.786 58.9581 107.746 54.7941C103.707 50.6286 101.728 45.4836 101.728 39.5226C101.728 33.4791 103.707 28.4166 107.746 24.2511C111.786 20.0856 116.567 18.0441 122.256 18.0441C128.522 18.0441 133.302 20.3316 136.685 24.9036V19.1061Z" fill="white"/>
<path fill-rule="evenodd" clip-rule="evenodd" d="M179.219 50.9542C184.662 50.9542 189.114 49.0777 192.493 45.4027C195.957 41.7277 197.686 36.9892 197.686 31.3552C197.686 25.6387 195.957 20.9842 192.493 17.3092C189.114 13.6342 184.662 11.7547 179.219 11.7547H166.028V50.9542H179.219ZM179.219 2.77271C187.134 2.77271 193.729 5.5492 198.925 11.0212C204.2 16.4917 206.838 23.2702 206.838 31.3552C206.838 39.3592 204.2 46.1362 198.925 51.6907C193.729 57.1627 187.134 59.9377 179.219 59.9377H156.547V2.77271H179.219Z" fill="white"/>
<path fill-rule="evenodd" clip-rule="evenodd" d="M225.467 39.6031H243.77L234.618 13.7986L225.467 39.6031ZM250.942 59.9386L246.903 48.4231H222.335L218.295 59.9386H207.989L228.93 2.77209H240.309L261.165 59.9386H250.942Z" fill="white"/>
<path fill-rule="evenodd" clip-rule="evenodd" d="M292.245 51.8535C298.018 51.8535 302.88 49.893 306.755 46.056C310.712 42.135 312.691 37.236 312.691 31.3545C312.691 25.476 310.712 20.5755 306.755 16.737C302.88 12.8175 298.018 10.8585 292.245 10.8585C286.474 10.8585 281.61 12.8175 277.652 16.737C273.778 20.5755 271.799 25.476 271.799 31.3545C271.799 37.236 273.778 42.135 277.652 46.056C281.61 49.893 286.474 51.8535 292.245 51.8535ZM292.245 61.0005C283.918 61.0005 276.828 58.1415 270.974 52.425C265.204 46.6275 262.318 39.603 262.318 31.3545C262.318 23.1075 265.204 16.0845 270.974 10.368C276.828 4.57055 283.918 1.71155 292.245 1.71155C300.572 1.71155 307.662 4.57055 313.433 10.368C319.286 16.0845 322.172 23.1075 322.172 31.3545C322.172 39.603 319.286 46.6275 313.433 52.425C307.662 58.1415 300.572 61.0005 292.245 61.0005Z" fill="white"/>
<path fill-rule="evenodd" clip-rule="evenodd" d="M337.462 2.51186L337.824 2.76536C344.508 7.45436 353.457 7.43936 360.126 2.72786V2.72636C365.646 -1.17364 372.649 5.10086 369.288 10.9299L357.806 30.8334C353.851 37.6884 343.872 37.6884 339.918 30.8334L328.32 10.7289C324.962 4.90736 331.939 -1.36414 337.462 2.51186Z" fill="#F9E47A"/>
</g>
</svg>